<svg width="32" height="32" viewBox="0 0 32 32" fill="none" xmlns="http://www.w3.org/2000/svg">
  <rect width="32" height="32" rx="8" fill="#080B10"/>
  <rect x="0.5" y="0.5" width="31" height="31" rx="7.5" stroke="#10B981" stroke-opacity="0.5"/>
  <path d="M20.5 11.2c-1-1.1-2.6-1.7-4.4-1.7-2.7 0-4.6 1.3-4.6 3.4 0 2 1.7 2.9 4 3.4 2 .4 2.8.8 2.8 1.7 0 .9-.9 1.5-2.3 1.5-1.5 0-2.6-.6-3.4-1.6l-1.6 1.7c1.1 1.4 2.9 2.1 5 2.1 2.9 0 4.9-1.4 4.9-3.6 0-2.1-1.6-3-4.1-3.5-1.9-.4-2.7-.7-2.7-1.6 0-.8.8-1.4 2.1-1.4 1.3 0 2.3.5 3 1.3l1.3-1.2z" fill="#34D399"/>
</svg>
